<svg xmlns="http://www.w3.org/2000/svg" xmlns:xlink="http://www.w3.org/1999/xlink" version="1.1" x="0px" y="0px" viewBox="0 0 66 82.5" enable-background="new 0 0 66 66" xml:space="preserve"><g><g><path d="M24.6,32c-0.6,0-1,0.4-1,1v7.2c0,3.1-2.5,5.6-5.6,5.6s-5.6-2.5-5.6-5.6V33c0-0.6-0.4-1-1-1s-1,0.4-1,1v7.2    c0,4.2,3.4,7.6,7.6,7.6c4.2,0,7.6-3.4,7.6-7.6V33C25.6,32.4,25.2,32,24.6,32z"/></g><g><path d="M60.4,1C60.4,1,60.4,1,60.4,1L25.1,1c-2.5,0-4.5,2-4.5,4.5v9.6H2c-0.6,0-1,0.4-1,1v5.2c0,0.6,0.4,1,1,1h18.6v3H3.7    c-0.5,0-1,0.4-1,1L1,61.2c0,1,0.3,2,1,2.7C2.7,64.6,3.7,65,4.7,65h26.8c1,0,2-0.4,2.6-1.1c0.7-0.7,1.1-1.7,1-2.7l-0.5-9.8h18.7    c2.5,0,4.5-2,4.5-4.5V10.7H64c0.6,0,1-0.4,1-1V5.6C65,3.1,63,1,60.4,1z M43.1,17.5l3.1,1.2l-3.1,1.2V17.5z M41.1,20.3H8.9v-3.2    h32.2V20.3z M3,17.1h3.9v3.2H3V17.1z M32.7,62.5c-0.3,0.3-0.7,0.5-1.2,0.5H4.7c-0.5,0-0.9-0.2-1.2-0.5C3.1,62.2,3,61.7,3,61.3    l1.6-34h26.9l1.6,34C33.2,61.7,33,62.2,32.7,62.5z M55.8,46.9c0,1.4-1.1,2.5-2.5,2.5H34.6l-1.1-23.1c0-0.5-0.5-1-1-1h-9.9v-3h19.6    c0.1,0,0.2,0,0.3-0.1l7-2.6c0.4-0.1,0.7-0.5,0.7-0.9s-0.3-0.8-0.7-0.9l-7-2.6c-0.1,0-0.2-0.1-0.3-0.1H22.6V5.5    c0-1.4,1.1-2.5,2.5-2.5h31.6c-0.5,0.7-0.8,1.6-0.8,2.6c0,0,0,0,0,0v0C55.8,23.9,55.8,36.9,55.8,46.9z M63,8.7h-5.2V5.6    C57.8,4.2,59,3,60.4,3C61.8,3,63,4.2,63,5.6V8.7z"/></g><g><path d="M50.7,10.2h-23c-0.6,0-1,0.4-1,1c0,0.6,0.4,1,1,1h23c0.6,0,1-0.4,1-1C51.7,10.6,51.3,10.2,50.7,10.2z"/></g><g><path d="M50.7,25.2h-9c-0.6,0-1,0.4-1,1c0,0.6,0.4,1,1,1h9c0.6,0,1-0.4,1-1C51.7,25.6,51.3,25.2,50.7,25.2z"/></g><g><path d="M50.7,32.7h-9c-0.6,0-1,0.4-1,1c0,0.6,0.4,1,1,1h9c0.6,0,1-0.4,1-1C51.7,33.1,51.3,32.7,50.7,32.7z"/></g><g><path d="M50.7,40.2h-9c-0.6,0-1,0.4-1,1c0,0.6,0.4,1,1,1h9c0.6,0,1-0.4,1-1C51.7,40.6,51.3,40.2,50.7,40.2z"/></g><g><rect x="10.6" y="54.6" width="2" height="2"/></g><g><rect x="17.1" y="54.6" width="2" height="2"/></g><g><rect x="23.6" y="54.6" width="2" height="2"/></g></g><text x="0" y="81" fill="#000000" font-size="5px" font-weight="bold" font-family="'Helvetica Neue', Helvetica, Arial-Unicode, Arial, Sans-serif">Created by ProSymbols</text><text x="0" y="86" fill="#000000" font-size="5px" font-weight="bold" font-family="'Helvetica Neue', Helvetica, Arial-Unicode, Arial, Sans-serif">from the Noun Project</text></svg>