<svg xmlns="http://www.w3.org/2000/svg" xmlns:xlink="http://www.w3.org/1999/xlink" version="1.1" x="0px" y="0px" viewBox="0 0 30 37.5" style="enable-background:new 0 0 30 30;" xml:space="preserve"><path d="M26.708,12.294c-0.001-0.001-0.001-0.001-0.002-0.002L15.707,1.293c-0.391-0.391-1.023-0.391-1.414,0L3.294,12.292  c-0.001,0.001-0.001,0.001-0.002,0.002l-1.999,1.999c-0.391,0.391-0.391,1.023,0,1.414s1.023,0.391,1.414,0L3,15.414V28  c0,0.553,0.448,1,1,1h22c0.552,0,1-0.447,1-1V15.414l0.293,0.293C27.488,15.902,27.744,16,28,16s0.512-0.098,0.707-0.293  c0.391-0.391,0.391-1.023,0-1.414L26.708,12.294z M12,27v-8h6v8H12z M25,27h-5v-9c0-0.553-0.448-1-1-1h-8c-0.552,0-1,0.447-1,1v9H5  V13.414l10-10l10,10V27z"/><text x="0" y="45" fill="#000000" font-size="5px" font-weight="bold" font-family="'Helvetica Neue', Helvetica, Arial-Unicode, Arial, Sans-serif">Created by Becris</text><text x="0" y="50" fill="#000000" font-size="5px" font-weight="bold" font-family="'Helvetica Neue', Helvetica, Arial-Unicode, Arial, Sans-serif">from the Noun Project</text></svg>