<svg xmlns="http://www.w3.org/2000/svg" xmlns:xlink="http://www.w3.org/1999/xlink" version="1.1" x="0px" y="0px" viewBox="0 0 100 125" style="enable-background:new 0 0 100 100;" xml:space="preserve"><path d="M63.364,28.119c0-5.684-4.624-10.307-10.307-10.307H41.485c-5.683,0-10.307,4.624-10.307,10.307  c0,5.683,4.624,10.307,10.307,10.307h11.572C58.74,38.426,63.364,33.802,63.364,28.119z M33.179,28.119  c0-4.581,3.727-8.307,8.307-8.307h11.572c4.58,0,8.307,3.727,8.307,8.307c0,4.58-3.727,8.307-8.307,8.307H41.485  C36.905,36.426,33.179,32.699,33.179,28.119z"/><path d="M54.521,44.452c9.006,0,16.333-7.327,16.333-16.333s-7.327-16.333-16.333-16.333h-14.5c-9.006,0-16.333,7.327-16.333,16.333  s7.327,16.333,16.333,16.333h2.282v42.366c0,2.739,2.229,4.968,4.968,4.968s4.968-2.229,4.968-4.968v-1.344h4.728  c0.553,0,1-0.448,1-1v-5.457c0-0.552-0.447-1-1-1h-4.728v-3.212h4.728c0.553,0,1-0.448,1-1v-5.457c0-0.552-0.447-1-1-1h-4.728  V44.452H54.521z M51.239,69.349h4.728v3.457h-4.728c-0.553,0-1,0.448-1,1v5.212c0,0.552,0.447,1,1,1h4.728v3.457h-4.728  c-0.553,0-1,0.448-1,1v2.344c0,1.636-1.331,2.968-2.968,2.968s-2.968-1.332-2.968-2.968V43.452c0-0.552-0.447-1-1-1h-3.282  c-7.903,0-14.333-6.43-14.333-14.333s6.43-14.333,14.333-14.333h14.5c7.903,0,14.333,6.43,14.333,14.333s-6.43,14.333-14.333,14.333  h-3.282c-0.553,0-1,0.448-1,1v24.896C50.239,68.901,50.687,69.349,51.239,69.349z"/><text x="0" y="115" fill="#000000" font-size="5px" font-weight="bold" font-family="'Helvetica Neue', Helvetica, Arial-Unicode, Arial, Sans-serif">Created by Made</text><text x="0" y="120" fill="#000000" font-size="5px" font-weight="bold" font-family="'Helvetica Neue', Helvetica, Arial-Unicode, Arial, Sans-serif">from the Noun Project</text></svg>