<svg xmlns="http://www.w3.org/2000/svg" xmlns:xlink="http://www.w3.org/1999/xlink" viewBox="0 0 100 125" version="1.1" x="0px" y="0px"><title>38</title><desc>Created with Sketch.</desc><g stroke="none" stroke-width="1" fill="none" fill-rule="evenodd"><g fill="#000000"><path d="M96.0784314,48.0831703 C96.0784314,50.9493151 94.4866667,53.4500978 92.1398039,54.7547945 C92.0219608,54.8201566 91.9027451,54.8831703 91.7817647,54.9420744 C91.7721569,54.946771 91.7629412,54.9520548 91.7531373,54.9565558 C91.6154902,55.023092 91.4756863,55.0845401 91.3345098,55.1424658 C91.3092157,55.1528376 91.2839216,55.1622309 91.2586275,55.172407 C91.1360784,55.221135 91.0123529,55.2667319 90.887451,55.3091977 C90.8645098,55.3168297 90.8419608,55.3246575 90.8190196,55.3322896 C90.5198039,55.4305284 90.2147059,55.5107632 89.9056863,55.5716243 C89.8972549,55.5731898 89.8886275,55.574364 89.8803922,55.5761252 C89.7415686,55.6029354 89.6019608,55.6250489 89.4617647,55.6440313 C89.427451,55.648728 89.3931373,55.6530333 89.3590196,55.6571429 C89.2403922,55.6716243 89.1211765,55.6827789 89.0015686,55.6917808 C88.9635294,55.6947162 88.9256863,55.6982387 88.887451,55.7005871 C88.7358824,55.709589 88.5837255,55.7152642 88.4313725,55.7152642 C88.3123529,55.7152642 88.1941176,55.711546 88.0762745,55.7062622 C88.0284314,55.7039139 87.9807843,55.7003914 87.9333333,55.6972603 C87.8670588,55.6931507 87.8011765,55.6880626 87.7352941,55.6821918 C87.6717647,55.6765166 87.6086275,55.669863 87.5452941,55.6622309 C87.5027451,55.6575342 87.4603922,55.6518591 87.4182353,55.646184 C87.3384314,55.6354207 87.2588235,55.6244618 87.1796078,55.6113503 C87.1776471,55.6109589 87.1756863,55.6105675 87.1735294,55.6101761 C85.1537255,55.2708415 83.3588235,54.1272016 82.1894118,52.4837573 C82.17,52.4565558 82.1501961,52.4295499 82.1309804,52.4019569 C82.0943137,52.348728 82.0586275,52.2945205 82.0229412,52.2399217 C81.995098,52.1972603 81.967451,52.1547945 81.9403922,52.1113503 C81.9096078,52.0622309 81.8794118,52.0127202 81.8498039,51.9626223 C81.8196078,51.9121331 81.7903922,51.8610568 81.7613725,51.8097847 C81.7352941,51.7632094 81.7090196,51.7166341 81.6837255,51.6694716 C81.6523529,51.6111546 81.6227451,51.5522505 81.5929412,51.4931507 C81.5715686,51.4502935 81.5492157,51.4082192 81.5286275,51.3651663 C81.4819608,51.2677104 81.4372549,51.1694716 81.3947059,51.069863 C81.3733333,51.0197652 81.3537255,50.9684932 81.3335294,50.9178082 C81.3117647,50.8639922 81.2898039,50.8103718 81.2694118,50.755773 C81.2462745,50.6949119 81.225098,50.6328767 81.2039216,50.5712329 C81.1886275,50.5273973 81.1733333,50.4837573 81.1590196,50.439726 C81.1368627,50.3710372 81.1154902,50.3019569 81.095098,50.2324853 C80.8941176,49.5502935 80.7843137,48.8293542 80.7843137,48.0831703 L80.7843137,43.2162427 L96.0784314,43.2162427 L96.0784314,48.0831703 Z M91.1992157,59.2931507 L91.1992157,95.9569472 L40.3398039,95.9569472 L40.3398039,75.9665362 C40.3398039,69.6001957 35.1503922,64.4205479 28.7711765,64.4205479 C22.3921569,64.4205479 17.202549,69.6001957 17.202549,75.9665362 L17.202549,95.9569472 L8.86313725,95.9569472 L8.86313725,59.3084149 C8.88392157,59.3135029 8.90490196,59.3166341 8.9254902,59.3215264 C9.10333333,59.3632094 9.28294118,59.4007828 9.46392157,59.4342466 C9.50823529,59.4424658 9.5527451,59.4502935 9.59705882,59.4579256 C9.7654902,59.4868885 9.93490196,59.5119374 10.1054902,59.5336595 C10.1572549,59.5401174 10.2084314,59.5473581 10.2601961,59.553229 C10.4272549,59.5722114 10.5952941,59.5863014 10.7639216,59.5982387 C10.8154902,59.6015656 10.8668627,59.607045 10.9182353,59.6097847 C11.1337255,59.6219178 11.3501961,59.6291585 11.5686275,59.6291585 C11.7427451,59.6291585 11.9156863,59.6238748 12.0880392,59.616047 C12.1329412,59.61409 12.177451,59.6121331 12.2219608,59.609589 C12.3772549,59.6007828 12.5319608,59.5894325 12.6858824,59.574364 C12.754902,59.5677104 12.8229412,59.5592955 12.8915686,59.5514677 C12.9754902,59.541683 13.0594118,59.5309198 13.1427451,59.5193738 C16.3382353,59.0833659 19.1213725,57.3412916 20.9335294,54.8500978 C20.972549,54.7968689 21.0105882,54.7426614 21.0488235,54.6886497 C21.0911765,54.6277886 21.135098,54.5682975 21.1764706,54.5066536 C21.2178431,54.5682975 21.2617647,54.6277886 21.3041176,54.6886497 C21.3423529,54.7426614 21.3803922,54.7968689 21.4194118,54.8500978 C23.2315686,57.3412916 26.0147059,59.0833659 29.2101961,59.5193738 C29.2935294,59.5309198 29.377451,59.541683 29.4613725,59.5514677 C29.53,59.5592955 29.5980392,59.5677104 29.6670588,59.574364 C29.8209804,59.5894325 29.9756863,59.6007828 30.1309804,59.609589 C30.1754902,59.6121331 30.22,59.61409 30.264902,59.616047 C30.4372549,59.6238748 30.6101961,59.6291585 30.7843137,59.6291585 C30.9584314,59.6291585 31.1313725,59.6238748 31.3037255,59.616047 C31.3486275,59.61409 31.3931373,59.6121331 31.4376471,59.609589 C31.5929412,59.6007828 31.7476471,59.5894325 31.9015686,59.574364 C31.9705882,59.5677104 32.0386275,59.5592955 32.1072549,59.5514677 C32.1911765,59.541683 32.275098,59.5309198 32.3584314,59.5193738 C35.5539216,59.0833659 38.3370588,57.3412916 40.1492157,54.8500978 C40.1882353,54.7968689 40.2262745,54.7426614 40.2645098,54.6886497 C40.3068627,54.6277886 40.3507843,54.5682975 40.3921569,54.5066536 C40.4335294,54.5682975 40.477451,54.6277886 40.5198039,54.6886497 C40.5580392,54.7426614 40.5960784,54.7968689 40.635098,54.8500978 C42.4472549,57.3412916 45.2303922,59.0833659 48.4258824,59.5193738 C48.5092157,59.5309198 48.5931373,59.541683 48.6770588,59.5514677 C48.7456863,59.5592955 48.8137255,59.5677104 48.8827451,59.574364 C49.0366667,59.5894325 49.1913725,59.6007828 49.3466667,59.609589 C49.3911765,59.6121331 49.4356863,59.61409 49.4805882,59.616047 C49.6529412,59.6238748 49.8258824,59.6291585 50,59.6291585 C50.1741176,59.6291585 50.3470588,59.6238748 50.5194118,59.616047 C50.5643137,59.61409 50.6088235,59.6121331 50.6533333,59.609589 C50.8086275,59.6007828 50.9633333,59.5894325 51.1172549,59.574364 C51.1862745,59.5677104 51.2543137,59.5592955 51.3229412,59.5514677 C51.4068627,59.541683 51.4907843,59.5309198 51.5741176,59.5193738 C54.7696078,59.0833659 57.5527451,57.3412916 59.364902,54.8500978 C59.4039216,54.7968689 59.4419608,54.7426614 59.4801961,54.6886497 C59.522549,54.6277886 59.5664706,54.5682975 59.6078431,54.5066536 C59.6492157,54.5682975 59.6931373,54.6277886 59.7354902,54.6886497 C59.7737255,54.7426614 59.8117647,54.7968689 59.8507843,54.8500978 C61.6629412,57.3412916 64.4460784,59.0833659 67.6415686,59.5193738 C67.724902,59.5309198 67.8088235,59.541683 67.8927451,59.5514677 C67.9613725,59.5592955 68.0294118,59.5677104 68.0984314,59.574364 C68.2523529,59.5894325 68.4070588,59.6007828 68.5623529,59.609589 C68.6068627,59.6121331 68.6513725,59.61409 68.6962745,59.616047 C68.8686275,59.6238748 69.0415686,59.6291585 69.2156863,59.6291585 C69.3898039,59.6291585 69.5627451,59.6238748 69.735098,59.616047 C69.78,59.61409 69.8245098,59.6121331 69.8690196,59.609589 C70.0243137,59.6007828 70.1790196,59.5894325 70.3329412,59.574364 C70.4019608,59.5677104 70.47,59.5592955 70.5386275,59.5514677 C70.622549,59.541683 70.7064706,59.5309198 70.7898039,59.5193738 C73.9852941,59.0833659 76.7684314,57.3412916 78.5805882,54.8500978 C78.6196078,54.7968689 78.6576471,54.7426614 78.6958824,54.6886497 C78.7382353,54.6277886 78.7821569,54.5682975 78.8235294,54.5066536 C78.864902,54.5682975 78.9088235,54.6277886 78.9511765,54.6886497 C78.9894118,54.7426614 79.027451,54.7968689 79.0664706,54.8500978 C80.8786275,57.3414873 83.6619608,59.0835616 86.8576471,59.5193738 C86.9407843,59.5309198 87.0243137,59.541683 87.1080392,59.5514677 C87.1768627,59.5592955 87.245098,59.5677104 87.3141176,59.574364 C87.4680392,59.5894325 87.6227451,59.6007828 87.7778431,59.609589 C87.822549,59.6121331 87.8670588,59.61409 87.9119608,59.616047 C88.0843137,59.6238748 88.2572549,59.6291585 88.4313725,59.6291585 C88.6529412,59.6291585 88.8729412,59.6215264 89.0913725,59.609002 C89.1458824,59.6060665 89.1996078,59.6005871 89.2537255,59.5966732 C89.4239216,59.5847358 89.5935294,59.5696673 89.7615686,59.5504892 C89.8154902,59.544227 89.8688235,59.5369863 89.9223529,59.5299413 C90.0982353,59.5072407 90.2729412,59.4808219 90.4458824,59.4502935 C90.487451,59.4430528 90.5290196,59.4358121 90.5703922,59.42818 C90.7721569,59.3902153 90.9723529,59.3475538 91.1703922,59.2992172 C91.18,59.2970646 91.1896078,59.295499 91.1992157,59.2931507 L91.1992157,59.2931507 Z M21.1241176,95.9569472 L21.1241176,75.9665362 C21.1241176,71.7581213 24.5547059,68.3344423 28.7711765,68.3344423 C32.9878431,68.3344423 36.4182353,71.7581213 36.4182353,75.9665362 L36.4182353,95.9569472 L21.1241176,95.9569472 Z M3.92156863,43.2162427 L19.2156863,43.2162427 L19.2156863,48.0831703 C19.2156863,48.8266145 19.1066667,49.5446184 18.9072549,50.2244618 C18.8852941,50.2986301 18.8627451,50.3722114 18.8390196,50.4454012 C18.8264706,50.483953 18.8129412,50.5221135 18.8,50.560274 C18.7770588,50.6270059 18.7541176,50.6937378 18.7292157,50.7594912 C18.7115686,50.8062622 18.6927451,50.8522505 18.6739216,50.8988258 C18.6441176,50.9737769 18.6137255,51.0483366 18.5815686,51.1221135 C18.5460784,51.2031311 18.5101961,51.2835616 18.4721569,51.3632094 C18.4501961,51.4093933 18.4262745,51.4547945 18.4031373,51.5003914 C18.374902,51.5563601 18.3468627,51.6125245 18.3172549,51.6677104 C18.2909804,51.7166341 18.2639216,51.7645793 18.2366667,51.8129159 C18.2086275,51.8624266 18.1803922,51.9119374 18.1511765,51.9608611 C18.1209804,52.0119374 18.0901961,52.0626223 18.0588235,52.1129159 C18.0323529,52.1551859 18.005098,52.1968689 17.9780392,52.2383562 C17.9419608,52.2935421 17.9058824,52.3485323 17.8686275,52.402544 C17.85,52.4295499 17.8307843,52.455773 17.8115686,52.4823875 C16.6423529,54.1264188 14.8470588,55.2706458 12.8264706,55.6101761 C12.8243137,55.6105675 12.8223529,55.6109589 12.8203922,55.6113503 C12.7411765,55.6244618 12.6615686,55.6354207 12.5817647,55.646184 C12.5396078,55.6518591 12.4970588,55.6575342 12.4547059,55.6622309 C12.3915686,55.669863 12.3282353,55.6763209 12.265098,55.6821918 C12.1990196,55.6880626 12.132549,55.6931507 12.0662745,55.6972603 C12.0188235,55.7003914 11.9713725,55.7039139 11.9237255,55.7062622 C11.8058824,55.711546 11.6876471,55.7152642 11.5686275,55.7152642 C11.4178431,55.7152642 11.2676471,55.7097847 11.117451,55.7009785 C11.0794118,55.6986301 11.0415686,55.6949119 11.0033333,55.6921722 C10.8866667,55.6835616 10.7707843,55.6727984 10.6547059,55.6589041 C10.6184314,55.6544031 10.5823529,55.6499022 10.5462745,55.6452055 C10.4176471,55.6277886 10.2896078,55.6074364 10.1621569,55.5835616 C10.1429412,55.5802348 10.1237255,55.5771037 10.1047059,55.5733855 C9.80372549,55.5148728 9.50666667,55.4377691 9.21529412,55.3440313 C9.18588235,55.3344423 9.15647059,55.3238748 9.1272549,55.31409 C9.01784314,55.2772994 8.90941176,55.2379648 8.80196078,55.1962818 C8.75980392,55.1798434 8.71764706,55.1636008 8.67588235,55.1465753 C8.57686275,55.1062622 8.47901961,55.062818 8.38176471,55.0181996 C8.34215686,55.0001957 8.30196078,54.9833659 8.2627451,54.9643836 C8.14215686,54.9066536 8.02372549,54.8452055 7.90627451,54.7812133 C5.53411765,53.483953 3.92156863,50.9681018 3.92156863,48.0831703 L3.92156863,43.2162427 Z M12.9045098,26.0317025 L24.7711765,26.0317025 L19.814902,39.3023483 L5.33352941,39.3023483 L12.9045098,26.0317025 Z M13.6764706,16.2953033 L30.325098,16.2953033 C31.0786275,16.2953033 31.7656863,15.8643836 32.0921569,15.1864971 C33.695098,11.8600783 36.1913725,9.04598826 39.3111765,7.04794521 C42.512549,4.99765166 46.2256863,3.91389432 50.0490196,3.91389432 C53.8721569,3.91389432 57.5852941,4.99765166 60.7868627,7.04794521 C63.9066667,9.04598826 66.4029412,11.8600783 68.0058824,15.1864971 C68.3323529,15.8643836 69.0194118,16.2953033 69.7729412,16.2953033 L86.4215686,16.2953033 L86.4215686,22.1178082 L56.3578431,22.1178082 L56.3378431,22.1178082 L43.7762745,22.1178082 C43.7690196,22.1178082 43.7617647,22.1176125 43.7543137,22.1178082 L13.6764706,22.1178082 L13.6764706,16.2953033 Z M80.2986275,39.3023483 L75.3421569,26.0317025 L86.9105882,26.0317025 L94.6329412,39.3023483 L80.2986275,39.3023483 Z M71.1570588,26.0317025 L76.1135294,39.3023483 L61.3339216,39.3023483 L58.7168627,26.0317025 L71.1570588,26.0317025 Z M54.7201961,26.0317025 L57.3370588,39.3023483 L42.7762745,39.3023483 L45.3931373,26.0317025 L54.7201961,26.0317025 Z M41.3964706,26.0317025 L38.7796078,39.3023483 L23.9998039,39.3023483 L28.9564706,26.0317025 L41.3964706,26.0317025 Z M32.0360784,55.6113503 C31.9568627,55.6244618 31.8772549,55.6354207 31.797451,55.646184 C31.7552941,55.6518591 31.7127451,55.6575342 31.6703922,55.6622309 C31.6072549,55.669863 31.5439216,55.6763209 31.4807843,55.6821918 C31.4147059,55.6880626 31.3482353,55.6931507 31.2819608,55.6972603 C31.2345098,55.7003914 31.1870588,55.7039139 31.1394118,55.7062622 C31.0215686,55.711546 30.9033333,55.7152642 30.7843137,55.7152642 C30.6652941,55.7152642 30.5470588,55.711546 30.4292157,55.7062622 C30.3815686,55.7039139 30.3341176,55.7003914 30.2866667,55.6972603 C30.2203922,55.6931507 30.1539216,55.6880626 30.0878431,55.6821918 C30.0247059,55.6763209 29.9613725,55.669863 29.8982353,55.6622309 C29.8558824,55.6575342 29.8133333,55.6518591 29.7711765,55.646184 C29.6913725,55.6354207 29.6117647,55.6244618 29.532549,55.6113503 C29.5305882,55.6109589 29.5286275,55.6105675 29.5264706,55.6101761 C27.5058824,55.2706458 25.7105882,54.1264188 24.5413725,52.4823875 C24.5221569,52.455773 24.5029412,52.4295499 24.4843137,52.402544 C24.4470588,52.3485323 24.4109804,52.2935421 24.375098,52.2383562 C24.3478431,52.1968689 24.3205882,52.1551859 24.2941176,52.1129159 C24.2627451,52.0626223 24.2319608,52.0119374 24.2017647,51.9608611 C24.172549,51.9119374 24.1443137,51.8624266 24.1162745,51.8129159 C24.0890196,51.7645793 24.0619608,51.7166341 24.0356863,51.6677104 C24.0060784,51.6125245 23.9780392,51.5563601 23.9498039,51.5003914 C23.9266667,51.4547945 23.9027451,51.4093933 23.8807843,51.3632094 C23.8427451,51.2835616 23.8068627,51.2031311 23.7713725,51.1221135 C23.7392157,51.0483366 23.7088235,50.9737769 23.6790196,50.8988258 C23.6601961,50.8522505 23.6413725,50.8062622 23.6237255,50.7594912 C23.5988235,50.6937378 23.5758824,50.6270059 23.5529412,50.560274 C23.54,50.5221135 23.5264706,50.483953 23.5139216,50.4454012 C23.4901961,50.3722114 23.4676471,50.2986301 23.4456863,50.2244618 C23.2462745,49.5446184 23.1372549,48.8266145 23.1372549,48.0831703 L23.1372549,43.2162427 L38.4313725,43.2162427 L38.4313725,48.0831703 C38.4313725,48.8266145 38.3223529,49.5446184 38.1229412,50.2244618 C38.1009804,50.2986301 38.0784314,50.3722114 38.0547059,50.4454012 C38.0421569,50.483953 38.0286275,50.5221135 38.0156863,50.560274 C37.9927451,50.6270059 37.9698039,50.6937378 37.944902,50.7594912 C37.9272549,50.8062622 37.9084314,50.8522505 37.8896078,50.8988258 C37.8598039,50.9737769 37.8294118,51.0483366 37.7972549,51.1221135 C37.7617647,51.2031311 37.7258824,51.2835616 37.6878431,51.3632094 C37.6658824,51.4093933 37.6419608,51.4547945 37.6188235,51.5003914 C37.5905882,51.5563601 37.562549,51.6125245 37.5329412,51.6677104 C37.5066667,51.7166341 37.4796078,51.7645793 37.4523529,51.8129159 C37.4243137,51.8624266 37.3960784,51.9119374 37.3668627,51.9608611 C37.3366667,52.0119374 37.3058824,52.0626223 37.2745098,52.1129159 C37.2480392,52.1551859 37.2207843,52.1968689 37.1937255,52.2383562 C37.1576471,52.2935421 37.1215686,52.3485323 37.0843137,52.402544 C37.0656863,52.4295499 37.0464706,52.455773 37.0272549,52.4823875 C35.8580392,54.1264188 34.0627451,55.2706458 32.0421569,55.6101761 C32.04,55.6105675 32.0380392,55.6109589 32.0360784,55.6113503 L32.0360784,55.6113503 Z M51.2517647,55.6113503 C51.172549,55.6244618 51.0929412,55.6354207 51.0131373,55.646184 C50.9709804,55.6518591 50.9284314,55.6575342 50.8860784,55.6622309 C50.8229412,55.669863 50.7596078,55.6763209 50.6964706,55.6821918 C50.6303922,55.6880626 50.5639216,55.6931507 50.4976471,55.6972603 C50.4501961,55.7003914 50.4027451,55.7039139 50.355098,55.7062622 C50.2372549,55.711546 50.1190196,55.7152642 50,55.7152642 C49.8809804,55.7152642 49.7627451,55.711546 49.644902,55.7062622 C49.5972549,55.7039139 49.5498039,55.7003914 49.5023529,55.6972603 C49.4360784,55.6931507 49.3696078,55.6880626 49.3035294,55.6821918 C49.2403922,55.6763209 49.1770588,55.669863 49.1139216,55.6622309 C49.0715686,55.6575342 49.0290196,55.6518591 48.9868627,55.646184 C48.9070588,55.6354207 48.827451,55.6244618 48.7482353,55.6113503 C48.7462745,55.6109589 48.7443137,55.6105675 48.7421569,55.6101761 C46.7215686,55.2706458 44.9262745,54.1264188 43.7570588,52.4823875 C43.7378431,52.455773 43.7186275,52.4295499 43.7,52.402544 C43.6627451,52.3485323 43.6266667,52.2935421 43.5907843,52.2383562 C43.5635294,52.1968689 43.5362745,52.1551859 43.5098039,52.1129159 C43.4784314,52.0626223 43.4476471,52.0119374 43.417451,51.9608611 C43.3882353,51.9119374 43.36,51.8624266 43.3319608,51.8129159 C43.3047059,51.7645793 43.2776471,51.7166341 43.2513725,51.6677104 C43.2217647,51.6125245 43.1937255,51.5563601 43.1654902,51.5003914 C43.1423529,51.4547945 43.1184314,51.4093933 43.0964706,51.3632094 C43.0584314,51.2835616 43.022549,51.2031311 42.9870588,51.1221135 C42.954902,51.0483366 42.9245098,50.9737769 42.8947059,50.8988258 C42.8758824,50.8522505 42.8570588,50.8062622 42.8394118,50.7594912 C42.8145098,50.6937378 42.7915686,50.6270059 42.7686275,50.560274 C42.7556863,50.5221135 42.7421569,50.483953 42.7296078,50.4454012 C42.7058824,50.3722114 42.6833333,50.2986301 42.6613725,50.2244618 C42.4619608,49.5446184 42.3529412,48.8266145 42.3529412,48.0831703 L42.3529412,43.2162427 L57.6470588,43.2162427 L57.6470588,48.0831703 C57.6470588,48.8266145 57.5380392,49.5446184 57.3386275,50.2244618 C57.3166667,50.2986301 57.2941176,50.3722114 57.2703922,50.4454012 C57.2578431,50.483953 57.2443137,50.5221135 57.2313725,50.560274 C57.2084314,50.6270059 57.1854902,50.6937378 57.1605882,50.7594912 C57.1429412,50.8062622 57.1241176,50.8522505 57.1052941,50.8988258 C57.0754902,50.9737769 57.045098,51.0483366 57.0129412,51.1221135 C56.977451,51.2031311 56.9415686,51.2835616 56.9035294,51.3632094 C56.8815686,51.4093933 56.8576471,51.4547945 56.8345098,51.5003914 C56.8062745,51.5563601 56.7782353,51.6125245 56.7486275,51.6677104 C56.7223529,51.7166341 56.6952941,51.7645793 56.6680392,51.8129159 C56.64,51.8624266 56.6117647,51.9119374 56.582549,51.9608611 C56.5523529,52.0119374 56.5215686,52.0626223 56.4901961,52.1129159 C56.4637255,52.1551859 56.4364706,52.1968689 56.4094118,52.2383562 C56.3733333,52.2935421 56.3372549,52.3485323 56.3,52.402544 C56.2813725,52.4295499 56.2621569,52.455773 56.2429412,52.4823875 C55.0737255,54.1264188 53.2784314,55.2706458 51.2578431,55.6101761 C51.2556863,55.6105675 51.2537255,55.6109589 51.2517647,55.6113503 L51.2517647,55.6113503 Z M70.467451,55.6113503 C70.3882353,55.6244618 70.3086275,55.6354207 70.2288235,55.646184 C70.1866667,55.6518591 70.1441176,55.6575342 70.1017647,55.6622309 C70.0386275,55.669863 69.9752941,55.6763209 69.9121569,55.6821918 C69.8460784,55.6880626 69.7796078,55.6931507 69.7133333,55.6972603 C69.6658824,55.7003914 69.6184314,55.7039139 69.5707843,55.7062622 C69.4529412,55.711546 69.3347059,55.7152642 69.2156863,55.7152642 C69.0966667,55.7152642 68.9784314,55.711546 68.8605882,55.7062622 C68.8129412,55.7039139 68.7654902,55.7003914 68.7180392,55.6972603 C68.6517647,55.6931507 68.5852941,55.6880626 68.5192157,55.6821918 C68.4560784,55.6763209 68.3927451,55.669863 68.3296078,55.6622309 C68.2872549,55.6575342 68.2447059,55.6518591 68.202549,55.646184 C68.1227451,55.6354207 68.0431373,55.6244618 67.9639216,55.6113503 C67.9619608,55.6109589 67.96,55.6105675 67.9578431,55.6101761 C65.9372549,55.2706458 64.1419608,54.1264188 62.9727451,52.4823875 C62.9535294,52.455773 62.9343137,52.4295499 62.9156863,52.402544 C62.8784314,52.3485323 62.8423529,52.2935421 62.8064706,52.2383562 C62.7792157,52.1968689 62.7519608,52.1551859 62.7254902,52.1129159 C62.6941176,52.0626223 62.6633333,52.0119374 62.6331373,51.9608611 C62.6039216,51.9119374 62.5756863,51.8624266 62.5476471,51.8129159 C62.5203922,51.7645793 62.4933333,51.7166341 62.4670588,51.6677104 C62.437451,51.6125245 62.4094118,51.5563601 62.3811765,51.5003914 C62.3580392,51.4547945 62.3341176,51.4093933 62.3121569,51.3632094 C62.2741176,51.2835616 62.2382353,51.2031311 62.2027451,51.1221135 C62.1705882,51.0483366 62.1401961,50.9737769 62.1103922,50.8988258 C62.0915686,50.8522505 62.0727451,50.8062622 62.055098,50.7594912 C62.0301961,50.6937378 62.0072549,50.6270059 61.9843137,50.560274 C61.9713725,50.5221135 61.9578431,50.483953 61.9452941,50.4454012 C61.9215686,50.3722114 61.8990196,50.2986301 61.8770588,50.2244618 C61.6776471,49.5446184 61.5686275,48.8266145 61.5686275,48.0831703 L61.5686275,43.2162427 L76.8627451,43.2162427 L76.8627451,48.0831703 C76.8627451,48.8266145 76.7537255,49.5446184 76.5543137,50.2244618 C76.5323529,50.2986301 76.5098039,50.3722114 76.4860784,50.4454012 C76.4735294,50.483953 76.46,50.5221135 76.4470588,50.560274 C76.4241176,50.6270059 76.4011765,50.6937378 76.3762745,50.7594912 C76.3586275,50.8062622 76.3398039,50.8522505 76.3209804,50.8988258 C76.2911765,50.9737769 76.2607843,51.0483366 76.2286275,51.1221135 C76.1931373,51.2031311 76.1572549,51.2835616 76.1192157,51.3632094 C76.0972549,51.4093933 76.0733333,51.4547945 76.0501961,51.5003914 C76.0219608,51.5563601 75.9939216,51.6125245 75.9643137,51.6677104 C75.9380392,51.7166341 75.9109804,51.7645793 75.8837255,51.8129159 C75.8556863,51.8624266 75.827451,51.9119374 75.7982353,51.9608611 C75.7680392,52.0119374 75.7372549,52.0626223 75.7058824,52.1129159 C75.6794118,52.1551859 75.6521569,52.1968689 75.624902,52.2383562 C75.5890196,52.2935421 75.5529412,52.3485323 75.5156863,52.402544 C75.4970588,52.4295499 75.4778431,52.455773 75.4586275,52.4823875 C74.2894118,54.1264188 72.4941176,55.2706458 70.4735294,55.6101761 C70.4713725,55.6105675 70.4694118,55.6109589 70.467451,55.6113503 L70.467451,55.6113503 Z M99.9990196,41.2424658 C99.9984314,41.1686888 99.9931373,41.0960861 99.9845098,41.0244618 C99.9819608,41.0033268 99.9782353,40.9827789 99.974902,40.9618395 C99.9658824,40.9027397 99.9543137,40.8444227 99.94,40.7870841 C99.9352941,40.7675147 99.9305882,40.7481409 99.925098,40.7285714 C99.9045098,40.6559687 99.8811765,40.5849315 99.8527451,40.516047 C99.8515686,40.5135029 99.8507843,40.5107632 99.8496078,40.5082192 C99.8190196,40.4342466 99.7829412,40.3630137 99.7435294,40.2939335 C99.7401961,40.2882583 99.7380392,40.2821918 99.7347059,40.2763209 L90.3401961,24.1322896 C90.3407843,24.1131115 90.3431373,24.0943249 90.3431373,24.0747554 L90.3431373,14.3383562 C90.3431373,13.2577299 89.465098,12.381409 88.3823529,12.381409 L70.9694118,12.381409 C69.0527451,8.88414873 66.2845098,5.91819961 62.9045098,3.75381605 C59.07,1.29804305 54.6245098,0 50.0490196,0 C45.4733333,0 41.0280392,1.29804305 37.1935294,3.75381605 C33.8135294,5.91819961 31.0452941,8.88414873 29.1286275,12.381409 L11.7156863,12.381409 C10.6329412,12.381409 9.75490196,13.2577299 9.75490196,14.3383562 L9.75490196,23.6424658 L0.256862745,40.290998 C0.254509804,40.2951076 0.252941176,40.2994129 0.250588235,40.3035225 C0.211960784,40.372407 0.177058824,40.4434442 0.146862745,40.5172211 C0.142941176,40.5272016 0.139803922,40.537182 0.135882353,40.5471624 C0.111372549,40.6097847 0.0903921569,40.6735812 0.0721568627,40.7389432 C0.0668627451,40.7587084 0.0617647059,40.7782779 0.0570588235,40.7980431 C0.0429411765,40.8565558 0.0315686275,40.9162427 0.022745098,40.9767123 C0.0201960784,40.9953033 0.0162745098,41.0136986 0.0143137255,41.0324853 C0.00549019608,41.107045 0,41.1823875 0,41.2592955 L0,48.0831703 C0,51.9906067 1.95666667,55.4485323 4.94156863,57.5383562 L4.94156863,97.9138943 C4.94156863,98.9945205 5.81960784,99.8708415 6.90235294,99.8708415 L19.1633333,99.8708415 L38.3790196,99.8708415 L93.16,99.8708415 C94.2429412,99.8708415 95.1207843,98.9945205 95.1207843,97.9138943 L95.1207843,57.4941292 C98.0703922,55.3998043 100,51.9632094 100,48.0831703 L100,41.2592955 C100,41.2587084 99.9998039,41.2579256 99.9998039,41.2573386 C99.9998039,41.2524462 99.9992157,41.2473581 99.9990196,41.2424658 L99.9990196,41.2424658 Z M51.9607843,84.719726 L80.0796078,84.719726 L80.0796078,68.3344031 L51.9607843,68.3344031 L51.9607843,84.719726 Z M82.0403922,64.4207045 L50,64.4207045 C48.9172549,64.4207045 48.0392157,65.2968297 48.0392157,66.3776517 L48.0392157,86.6766732 C48.0392157,87.7574951 48.9172549,88.6336204 50,88.6336204 L82.0403922,88.6336204 C83.1233333,88.6336204 84.0011765,87.7574951 84.0011765,86.6766732 L84.0011765,66.3776517 C84.0011765,65.2968297 83.1233333,64.4207045 82.0403922,64.4207045 L82.0403922,64.4207045 Z"/></g></g><text x="0" y="115" fill="#000000" font-size="5px" font-weight="bold" font-family="'Helvetica Neue', Helvetica, Arial-Unicode, Arial, Sans-serif">Created by AomAm</text><text x="0" y="120" fill="#000000" font-size="5px" font-weight="bold" font-family="'Helvetica Neue', Helvetica, Arial-Unicode, Arial, Sans-serif">from the Noun Project</text></svg>