<?xml version="1.0" encoding="utf-8"?>
<!-- Generator: Adobe Illustrator 22.0.0, SVG Export Plug-In . SVG Version: 6.00 Build 0)  -->
<svg version="1.1" id="Layer_2" xmlns="http://www.w3.org/2000/svg" xmlns:xlink="http://www.w3.org/1999/xlink" x="0px" y="0px"
	 viewBox="0 0 703.5 261.6" style="enable-background:new 0 0 703.5 261.6;" xml:space="preserve">
<style type="text/css">
	.st0{fill:#154A89;}
	.st1{fill:#D9291C;}
</style>
<g>
	<g>
		<path class="st0" d="M66.5,94.7l-16.4,0c-5.9,0-10.3-4.1-9.5-9c0.8-4.9,6.4-9,12.3-8.9l48.1,0l3.6-23.2l-48.1,0
			c-18.6,0-36,14.4-38.8,32.1s10.1,32.1,28.7,32.2l16.4,0c6,0,10.2,4.3,9.4,9.6c-0.8,5.3-6.4,9.6-12.4,9.6l-48.1,0L8,160.2l48.1,0
			c18.6,0,36-14.7,38.9-32.8C97.9,109.4,85,94.7,66.5,94.7z"/>
		<path class="st0" d="M159.4,129c-0.8,5.2-8.8,11.1-18.9,11.1c-10.1,0-16.3-5.9-15.5-11.1l11.7-74.5l-22.8,0L102.3,129
			c-3,18.9,12.6,34.3,34.6,34.3s42.4-15.4,45.4-34.3l11.5-73.3l-22.8,0L159.4,129z"/>
		<path class="st0" d="M293.4,84.3c-1.4,8.7,0.6,16.6,4.9,22.7c-6.2,6-10.7,14-12,22.7c-3,18.9,9.8,34.3,28.3,34.3l48.1,0l3.6-23.2
			l-48.1,0c-6,0-10.1-5-9.2-11.1c1-6.1,6.6-11.1,12.6-11.1l48.1,0l3.6-23.2l-48.1,0c-6,0-10.1-5-9.2-11.1s6.6-11.1,12.6-11.1l48.1,0
			l3.6-23.2l-48.1,0C313.9,50,296.4,65.4,293.4,84.3z"/>
		<path class="st0" d="M263,53.2l-59.5,0L195,107l-2.3,14.8l-6,38.5l22.8,0l4.3-27.4c1-6.1,6.6-11.1,12.6-11.1l25.8,0
			c18.6,0,36.1-15.4,39.1-34.3C294.3,68.6,281.6,53.2,263,53.2z M255.9,98.6l-36.7,0l3.5-22.2l36.7,0c6,0,10.1,5,9.2,11.1
			S261.9,98.6,255.9,98.6z"/>
		<path class="st0" d="M475.3,84.4c3-18.9-9.8-34.3-28.3-34.3l-59.5,0l-8.9,57l-1.8,11.6l-7.5,46.7l22.8,0l5.8-35.6
			c1-6.1,6.6-11.1,12.6-11.1l1.4,0l16.9,45.4h25.9l-16.9-45.4C455.7,117.8,472.4,102.8,475.3,84.4z M406.5,73.3l36.7,0
			c6,0,10.1,5,9.2,11.1c-1,6.1-6.6,11.1-12.6,11.1l-36.7,0L406.5,73.3z"/>
	</g>
	<path class="st1" d="M671.7,133c0.5-0.5,1.1-1.1,1.6-1.6c13.1-14.1,22-32.6,25.1-52s-0.1-37.9-8.8-52C680,11.8,664.3,2.8,646.4,2.8
		l-8,0l-71.9,0l-8,0c-17.9,0-36.4,8.9-50.9,24.5c-13.1,14.1-22,32.6-25.1,52s0.1,37.9,8.8,52c0.3,0.6,0.7,1.1,1.1,1.7
		c-0.5,0.5-1.1,1.1-1.6,1.6c-13.1,14.1-22,32.6-25.1,52c-3,19.4,0.1,37.9,8.8,52c9.6,15.6,25.3,24.5,43.3,24.5l44-0.1l43.9,0.1
		c17.9,0,36.5-8.9,50.9-24.5c13.1-14.1,22-32.6,25.1-52s-0.1-37.9-8.8-52C672.5,134.1,672.1,133.6,671.7,133z M612.9,216.8l-8.1,0
		l0-0.1l-35.9,0.1l-35.9-0.1l0,0.1l-8.1,0c-8.7,0-16.4-12.9-13.7-30.1s14.4-30.1,23.1-30.1l8,0l71.9,0l8,0
		c8.7,0,16.4,12.9,13.7,30.1C633.3,203.9,621.5,216.8,612.9,216.8z M629.7,109.5l-8.1,0l0-0.1l-35.9,0.1l-35.9-0.1l0,0.1l-8.1,0
		c-8.7,0-16.4-12.9-13.7-30.1s14.4-30.1,23.1-30.1l8,0l71.9,0l8,0c8.7,0,16.4,12.9,13.7,30.1S638.4,109.5,629.7,109.5z"/>
	<g>
		<g>
			<path class="st1" d="M43.7,187.7l-4.5,2.9c-1.3-1.5-2.5-2.5-3.7-3.1c-1.2-0.6-2.6-0.9-4.1-0.9c-3.3,0-6,1.3-8.1,4
				c-1.6,2.1-2.5,4.5-2.5,7c0,2.5,0.8,4.7,2.5,6.4c1.7,1.7,3.8,2.6,6.2,2.6c1.8,0,3.5-0.4,5-1.3c1.5-0.9,2.7-2.2,3.7-4h-8.9l0.7-5.1
				h14.4c-0.2,4.7-1.7,8.5-4.4,11.2s-6.3,4.2-10.5,4.2c-4.6,0-8.3-1.6-10.9-4.8c-2.1-2.6-3.2-5.6-3.2-9.2c0-4.3,1.6-8.1,4.7-11.2
				s6.8-4.7,11.2-4.7c1.6,0,3.2,0.2,4.7,0.7c1.5,0.5,2.9,1.1,4.1,2C41.4,185.2,42.5,186.3,43.7,187.7z"/>
			<path class="st1" d="M52.7,182.4h5c3.1,0,5.2,0.3,6.5,0.8c1.6,0.7,2.7,1.6,3.5,2.7c0.8,1.2,1.2,2.6,1.2,4.2c0,2-0.6,3.7-1.8,5.1
				s-2.9,2.4-5.3,3l6.2,12.8h-5.5l-6.1-12.5h-0.4l-1.7,12.5h-5.4L52.7,182.4z M56.5,193.8c2.9,0,4.8-0.3,5.7-0.9
				c0.9-0.6,1.3-1.5,1.3-2.6c0-0.7-0.2-1.2-0.5-1.7c-0.4-0.5-0.9-0.8-1.5-1c-0.7-0.2-2-0.3-4-0.3L56.5,193.8z"/>
			<path class="st1" d="M88.5,181.7c3.9,0,7.2,1.3,9.7,3.8s3.8,5.7,3.8,9.6c0,3-0.8,5.8-2.3,8.4c-1.5,2.6-3.5,4.7-6,6.1
				c-2.5,1.4-5.4,2.1-8.6,2.1c-4.1,0-7.3-1.2-9.7-3.6c-2.4-2.4-3.6-5.6-3.6-9.5c0-4.5,1.4-8.3,4.3-11.5
				C79.4,183.4,83.5,181.7,88.5,181.7z M88.3,186.7c-2,0-3.9,0.5-5.6,1.5c-1.7,1-3,2.4-4.1,4.3c-1,1.9-1.6,3.8-1.6,5.8
				c0,2.3,0.7,4.3,2.2,6s3.5,2.4,6.2,2.4c3.1,0,5.8-1.1,7.9-3.3c2.2-2.2,3.3-4.9,3.3-8c0-2.6-0.8-4.7-2.3-6.2
				C92.8,187.5,90.8,186.7,88.3,186.7z"/>
			<path class="st1" d="M133.1,186.1l-3.9,3.6c-0.8-1-1.9-1.7-3.1-2.2s-2.5-0.8-4-0.8c-2,0-3.9,0.5-5.7,1.5c-1.8,1-3.2,2.4-4.3,4.1
				c-1,1.7-1.5,3.5-1.5,5.4c0,2.6,0.9,4.7,2.7,6.4c1.8,1.7,4.1,2.6,6.9,2.6c3,0,5.6-0.9,7.8-2.6l3.2,4.2c-3.2,2.3-7,3.4-11.3,3.4
				c-3,0-5.6-0.6-7.7-1.7c-2.1-1.1-3.8-2.8-5.1-5c-1.3-2.2-1.9-4.6-1.9-7.2c0-2.8,0.8-5.4,2.3-7.9c1.5-2.5,3.5-4.5,6.1-6
				s5.4-2.2,8.4-2.2C126.3,181.7,130,183.1,133.1,186.1z"/>
			<path class="st1" d="M139.5,182.4h15.3l-0.7,5.1h-10l-0.8,5.9h10l-0.7,5h-10.1l-1.1,7.6h10.1l-0.6,5h-15.5L139.5,182.4z"/>
			<path class="st1" d="M160.8,182.4h5c3.1,0,5.2,0.3,6.5,0.8c1.6,0.7,2.7,1.6,3.5,2.7c0.8,1.2,1.2,2.6,1.2,4.2c0,2-0.6,3.7-1.8,5.1
				s-2.9,2.4-5.3,3l6.2,12.8h-5.5l-6.1-12.5h-0.4l-1.7,12.5h-5.4L160.8,182.4z M164.6,193.8c2.9,0,4.8-0.3,5.7-0.9
				c0.9-0.6,1.3-1.5,1.3-2.6c0-0.7-0.2-1.2-0.5-1.7c-0.4-0.5-0.9-0.8-1.5-1c-0.7-0.2-2-0.3-4-0.3L164.6,193.8z"/>
			<path class="st1" d="M179.6,182.4h5.4l4.4,11.4l8.1-11.4h6.1l-12.2,17.1l-1.5,11.4h-5.4l1.6-11.4L179.6,182.4z"/>
			<path class="st1" d="M216.6,182.4h4.9l1.7,18.5l8.7-18.5h4l3.4,18l6.4-18h5.2l-10.1,28.5h-4.4l-3.6-18.9l-8.9,18.9h-4.7
				L216.6,182.4z"/>
			<path class="st1" d="M264.7,182.4h4.5l7.1,28.5h-5.2l-1.5-6.1h-11.3l-3.2,6.1h-5.8L264.7,182.4z M268.3,199.8l-2.3-9.4l-5,9.4
				H268.3z"/>
			<path class="st1" d="M284.7,182.4h5c3.1,0,5.2,0.3,6.5,0.8c1.6,0.7,2.7,1.6,3.5,2.7c0.8,1.2,1.2,2.6,1.2,4.2c0,2-0.6,3.7-1.8,5.1
				s-2.9,2.4-5.3,3l6.2,12.8h-5.5l-6.1-12.5h-0.4l-1.7,12.5h-5.4L284.7,182.4z M288.6,193.8c2.9,0,4.8-0.3,5.7-0.9
				c0.9-0.6,1.3-1.5,1.3-2.6c0-0.7-0.2-1.2-0.5-1.7c-0.4-0.5-0.9-0.8-1.5-1c-0.7-0.2-2-0.3-4-0.3L288.6,193.8z"/>
			<path class="st1" d="M307.2,182.4h15.3l-0.7,5.1h-10l-0.8,5.9h10l-0.7,5h-10.1l-1.1,7.6h10.1l-0.6,5h-15.5L307.2,182.4z"/>
			<path class="st1" d="M328.1,182.4h5.4l-1.5,10.8h9.8l1.5-10.8h5.4l-3.9,28.5h-5.4l1.8-13h-9.8l-1.8,13h-5.3L328.1,182.4z"/>
			<path class="st1" d="M368.3,181.7c3.9,0,7.2,1.3,9.7,3.8c2.5,2.5,3.8,5.7,3.8,9.6c0,3-0.8,5.8-2.3,8.4s-3.5,4.7-6,6.1
				c-2.5,1.4-5.4,2.1-8.6,2.1c-4.1,0-7.3-1.2-9.7-3.6s-3.6-5.6-3.6-9.5c0-4.5,1.4-8.3,4.3-11.5C359.1,183.4,363.2,181.7,368.3,181.7
				z M368.1,186.7c-2,0-3.9,0.5-5.6,1.5c-1.7,1-3,2.4-4.1,4.3c-1,1.9-1.6,3.8-1.6,5.8c0,2.3,0.7,4.3,2.2,6c1.4,1.6,3.5,2.4,6.2,2.4
				c3.1,0,5.8-1.1,7.9-3.3s3.3-4.9,3.3-8c0-2.6-0.8-4.7-2.3-6.2C372.6,187.5,370.6,186.7,368.1,186.7z"/>
			<path class="st1" d="M388.4,182.4h5.3l-2.4,17.6c-0.2,1.5-0.3,2.6-0.3,3.3c0,1.1,0.3,1.9,1,2.5c0.7,0.6,1.6,0.9,2.9,0.9
				c1,0,1.9-0.2,2.7-0.7c0.6-0.3,1-0.9,1.4-1.7c0.3-0.8,0.7-2.3,1-4.7l2.4-17.3h5.4l-2.3,17c-0.5,3.5-1.1,6-1.9,7.5
				s-1.9,2.7-3.4,3.5c-1.5,0.8-3.3,1.2-5.4,1.2c-2.8,0-5.1-0.8-6.7-2.3c-1.6-1.5-2.4-3.6-2.4-6.2c0-1.1,0.2-2.8,0.5-5L388.4,182.4z"
				/>
			<path class="st1" d="M428.5,186.4l-3.9,3.5c-1.6-2.1-3.1-3.1-4.5-3.1c-0.7,0-1.3,0.2-1.7,0.6c-0.5,0.4-0.7,0.9-0.7,1.5
				c0,0.5,0.2,1.1,0.6,1.8c0.4,0.6,1.7,2.1,3.8,4.3c1.1,1.2,1.8,2,2.2,2.5c0.8,1.1,1.4,2.2,1.8,3.2c0.4,1,0.6,2,0.6,3
				c0,2.3-0.8,4.2-2.4,5.8c-1.6,1.6-3.7,2.3-6.3,2.3c-3.9,0-7-1.8-9.5-5.5l4.1-3.3c1.7,2.5,3.4,3.8,5.4,3.8c0.9,0,1.7-0.3,2.3-0.9
				c0.6-0.6,0.9-1.3,0.9-2.2c0-0.7-0.2-1.3-0.6-2c-0.4-0.7-1.5-2-3.3-3.9c-1.9-2-3.1-3.5-3.7-4.5c-0.8-1.4-1.2-2.7-1.2-4.1
				c0-1.8,0.6-3.3,1.7-4.7c1.4-1.7,3.4-2.6,5.9-2.6C423.4,181.7,426.2,183.2,428.5,186.4z"/>
			<path class="st1" d="M434.3,182.4h15.3l-0.7,5.1h-10l-0.8,5.9h10l-0.7,5h-10.1l-1,7.6h10.1l-0.6,5h-15.5L434.3,182.4z"/>
		</g>
	</g>
</g>
</svg>
